<svg width="100" height="100" viewBox="0 0 100 100" xmlns="http://www.w3.org/2000/svg">
<circle cx="50" cy="50" r="48" fill="#0D1B2A"/>
<g stroke="#F2F4F7" stroke-width="2" fill="none">
  <polygon points="50,22 74,36 74,64 50,78 26,64 26,36"/>
</g>
<g stroke="#00B894" stroke-width="2" fill="none">
  <line x1="50" y1="50" x2="50" y2="22"/>
  <line x1="50" y1="50" x2="74" y2="36"/>
  <line x1="50" y1="50" x2="74" y2="64"/>
  <line x1="50" y1="50" x2="50" y2="78"/>
  <line x1="50" y1="50" x2="26" y2="64"/>
  <line x1="50" y1="50" x2="26" y2="36"/>
</g>
<g fill="#F2F4F7">
  <circle cx="50" cy="22" r="4"/>
  <circle cx="74" cy="36" r="4"/>
  <circle cx="74" cy="64" r="4"/>
  <circle cx="50" cy="78" r="4"/>
  <circle cx="26" cy="64" r="4"/>
  <circle cx="26" cy="36" r="4"/>
</g>
<circle cx="50" cy="50" r="6" fill="#00B894"/>
</svg>