<svg width="800" height="520" viewBox="0 0 800 520" xmlns="http://www.w3.org/2000/svg">
  <defs>
    <linearGradient id="bg" x1="0" y1="0" x2="1" y2="1">
      <stop offset="0%" stop-color="#08111a"/>
      <stop offset="100%" stop-color="#2a315d"/>
    </linearGradient>
    <linearGradient id="accent" x1="0" y1="0" x2="1" y2="1">
      <stop offset="0%" stop-color="#fbbf24"/>
      <stop offset="100%" stop-color="#fb7185"/>
    </linearGradient>
  </defs>
  <rect width="800" height="520" fill="url(#bg)"/>
  <circle cx="138" cy="112" r="148" fill="#fbbf24" fill-opacity="0.12"/>
  <circle cx="672" cy="94" r="176" fill="#fb7185" fill-opacity="0.10"/>
  <path d="M0 348C120 286 238 258 344 266C440 273 522 326 640 332C700 334 752 324 800 306V520H0Z" fill="#091120" fill-opacity="0.4"/>
  <path d="M86 116h260c16 0 30 14 30 30v116c0 16-14 30-30 30H86c-16 0-30-14-30-30V146c0-16 14-30 30-30Z" fill="#ffffff" fill-opacity="0.05" stroke="#fef3c7" stroke-opacity="0.14"/>
  <rect x="116" y="146" width="170" height="14" rx="7" fill="#fff7ed" fill-opacity="0.84"/>
  <rect x="116" y="174" width="214" height="10" rx="5" fill="#d6d3d1" fill-opacity="0.42"/>
  <rect x="116" y="198" width="196" height="10" rx="5" fill="#d6d3d1" fill-opacity="0.3"/>
  <rect x="116" y="224" width="96" height="32" rx="16" fill="#fbbf24" fill-opacity="0.92"/>
  <path d="M390 116h250c20 0 36 16 36 36v104c0 20-16 36-36 36H390c-20 0-36-16-36-36V152c0-20 16-36 36-36Z" fill="#ffffff" fill-opacity="0.06" stroke="#fed7aa" stroke-opacity="0.14"/>
  <path d="M418 234h30v-48h34v48h30v-70h34v70h30" fill="none" stroke="url(#accent)" stroke-width="10" stroke-linecap="round" stroke-linejoin="round" stroke-opacity="0.72"/>
</svg>
