<svg width="800" height="520" viewBox="0 0 800 520" xmlns="http://www.w3.org/2000/svg">
  <defs>
    <linearGradient id="bg" x1="0" y1="0" x2="1" y2="1">
      <stop offset="0%" stop-color="#09131f"/>
      <stop offset="100%" stop-color="#1d3353"/>
    </linearGradient>
    <linearGradient id="accent" x1="0" y1="0" x2="1" y2="1">
      <stop offset="0%" stop-color="#6ee7b7"/>
      <stop offset="100%" stop-color="#60a5fa"/>
    </linearGradient>
  </defs>
  <rect width="800" height="520" fill="url(#bg)"/>
  <circle cx="138" cy="108" r="126" fill="#6ee7b7" fill-opacity="0.13"/>
  <circle cx="666" cy="88" r="168" fill="#60a5fa" fill-opacity="0.12"/>
  <circle cx="630" cy="418" r="118" fill="#f472b6" fill-opacity="0.10"/>
  <path d="M0 350C118 298 242 260 338 270C454 284 522 332 642 336C700 338 750 330 800 316V520H0Z" fill="#081120" fill-opacity="0.4"/>
  <path d="M52 238h540c24 0 44 20 44 44v80c0 24-20 44-44 44H52c-24 0-44-20-44-44v-80c0-24 20-44 44-44Z" fill="#ffffff" fill-opacity="0.05" stroke="#e2e8f0" stroke-opacity="0.12"/>
  <rect x="82" y="268" width="138" height="12" rx="6" fill="#e8eefc" fill-opacity="0.82"/>
  <rect x="82" y="292" width="188" height="10" rx="5" fill="#a9b7d6" fill-opacity="0.46"/>
  <rect x="82" y="318" width="220" height="16" rx="8" fill="#60a5fa" fill-opacity="0.9"/>
  <rect x="332" y="268" width="164" height="94" rx="18" fill="#ffffff" fill-opacity="0.06" stroke="#93c5fd" stroke-opacity="0.16"/>
  <rect x="354" y="286" width="30" height="58" rx="15" fill="#6ee7b7" fill-opacity="0.9"/>
  <rect x="392" y="300" width="30" height="44" rx="15" fill="#60a5fa" fill-opacity="0.82"/>
  <rect x="430" y="288" width="30" height="56" rx="15" fill="#f472b6" fill-opacity="0.82"/>
</svg>
