<svg width="800" height="520" viewBox="0 0 800 520" xmlns="http://www.w3.org/2000/svg">
  <defs>
    <linearGradient id="bg" x1="0" y1="0" x2="1" y2="1">
      <stop offset="0%" stop-color="#071827"/>
      <stop offset="100%" stop-color="#25426b"/>
    </linearGradient>
    <linearGradient id="accent" x1="0" y1="0" x2="1" y2="1">
      <stop offset="0%" stop-color="#7ab8ff"/>
      <stop offset="100%" stop-color="#a78bfa"/>
    </linearGradient>
  </defs>
  <rect width="800" height="520" fill="url(#bg)"/>
  <path d="M-40 130C90 70 210 72 318 116C422 159 524 178 642 148C714 129 764 106 840 66V0H-40Z" fill="#7ab8ff" fill-opacity="0.14"/>
  <path d="M0 388C138 330 234 290 338 292C440 294 530 338 640 345C706 349 754 337 800 325V520H0Z" fill="#0b1220" fill-opacity="0.36"/>
  <circle cx="670" cy="116" r="132" fill="#a78bfa" fill-opacity="0.13"/>
  <circle cx="134" cy="424" r="96" fill="#60a5fa" fill-opacity="0.14"/>
  <rect x="80" y="90" width="272" height="160" rx="24" fill="#ffffff" fill-opacity="0.07" stroke="#dbeafe" stroke-opacity="0.16"/>
  <rect x="112" y="124" width="188" height="14" rx="7" fill="#e0f2fe" fill-opacity="0.84"/>
  <rect x="112" y="152" width="208" height="10" rx="5" fill="#cbd5e1" fill-opacity="0.42"/>
  <rect x="112" y="172" width="156" height="10" rx="5" fill="#cbd5e1" fill-opacity="0.33"/>
  <rect x="112" y="196" width="86" height="36" rx="18" fill="#7ab8ff" fill-opacity="0.95"/>
  <rect x="222" y="194" width="118" height="38" rx="19" fill="#a78bfa" fill-opacity="0.78"/>
  <path d="M446 102h160c18 0 32 14 32 32v112c0 18-14 32-32 32H446c-18 0-32-14-32-32V134c0-18 14-32 32-32Z" fill="#ffffff" fill-opacity="0.06" stroke="#c4b5fd" stroke-opacity="0.16"/>
  <path d="M474 202c30-52 62-74 96-74s66 22 98 74" fill="none" stroke="url(#accent)" stroke-width="12" stroke-linecap="round" stroke-opacity="0.7"/>
</svg>
