<svg width="800" height="520" viewBox="0 0 800 520" xmlns="http://www.w3.org/2000/svg">
  <defs>
    <linearGradient id="bg" x1="0" y1="0" x2="1" y2="1">
      <stop offset="0%" stop-color="#0c1a35"/>
      <stop offset="100%" stop-color="#193d73"/>
    </linearGradient>
    <linearGradient id="accent" x1="0" y1="0" x2="1" y2="1">
      <stop offset="0%" stop-color="#60a5fa"/>
      <stop offset="100%" stop-color="#34d399"/>
    </linearGradient>
  </defs>
  <rect width="800" height="520" fill="url(#bg)"/>
  <circle cx="138" cy="104" r="148" fill="#5aa0ff" fill-opacity="0.16"/>
  <circle cx="686" cy="60" r="164" fill="#6ee7b7" fill-opacity="0.10"/>
  <circle cx="688" cy="430" r="120" fill="#7ab8ff" fill-opacity="0.14"/>
  <path d="M0 366C126 318 228 286 338 290C444 293 526 341 634 342C695 342 749 328 800 310V520H0Z" fill="#081223" fill-opacity="0.35"/>
  <path d="M0 322C124 268 231 242 340 244C454 246 546 295 644 300C705 304 756 289 800 273" fill="none" stroke="url(#accent)" stroke-width="10" stroke-linecap="round" stroke-opacity="0.55"/>
  <rect x="80" y="90" width="228" height="144" rx="22" fill="#ffffff" fill-opacity="0.08" stroke="#dbeafe" stroke-opacity="0.18"/>
  <rect x="112" y="128" width="112" height="12" rx="6" fill="#dbeafe" fill-opacity="0.78"/>
  <rect x="112" y="154" width="164" height="10" rx="5" fill="#cbd5e1" fill-opacity="0.45"/>
  <rect x="112" y="178" width="138" height="10" rx="5" fill="#cbd5e1" fill-opacity="0.35"/>
  <rect x="112" y="196" width="74" height="30" rx="15" fill="#60a5fa" fill-opacity="0.95"/>
  <rect x="360" y="106" width="100" height="182" rx="24" fill="#ffffff" fill-opacity="0.06" stroke="#93c5fd" stroke-opacity="0.16"/>
  <rect x="386" y="142" width="48" height="96" rx="18" fill="#60a5fa" fill-opacity="0.9"/>
  <rect x="386" y="248" width="48" height="18" rx="9" fill="#34d399" fill-opacity="0.9"/>
</svg>
